<svg id="Layer_1" data-name="Layer 1" xmlns="http://www.w3.org/2000/svg" viewBox="0 0 260.23 269.84"><title>pencil</title><path d="M680.38,277.58c1.28,0,1.14-.16,2-0.7a3.2,3.2,0,0,1,2.08-.4c1.83,0,3.66,0,5.49,0h5.52c2.17,0,4.12.45,6.26,0.53,1.18,0,2.21.51,3.38,0.58,0.72,0,1.48-.11,2.2,0a8,8,0,0,1,1.6.59,14.54,14.54,0,0,0,3,0h27.53c2.43,0,4.74.47,7.16,0.58,6.68,0.3,13.48,0,20.17,0H785.7c4.34,0,8.74.21,13.07,0,2-.08,3.81-0.61,5.79-0.59,1.54,0,3.07,0,4.61,0,2.65,0,5-.57,7.57-0.54,3.95,0.05,7.85-1.11,11.76-1.55,6.61-.76,13.56-0.11,20.22-0.11,2-1.5,4.45-2.52,6.6-4a30.25,30.25,0,0,0,6.73-6.45c1.77-2.26,3.79-4.06,5.39-6.46a13.08,13.08,0,0,0,1.21-2.79,11.87,11.87,0,0,0,.87-1.32c0.39-1.23.11-3,.11-4.29h-8.78c-3.75,0-7.31-.55-11.05-0.55H835.56c-2.42,0-4.87-.11-7.28,0a83.53,83.53,0,0,0-10.11,1.41c-5.79.94-11.58,0.52-17.42,0.86a131.24,131.24,0,0,0-15.35,2,78.46,78.46,0,0,1-9.56,1.25c-6.36.32-12.63-.53-19-0.59a48.76,48.76,0,0,0-9.48,1c-2.47.47-5.65-.8-8.13-1.14-5.23-.72-10.56-0.38-15.84-0.4-3.59,0-7,1.1-10.59,1.1,0.24,0.81-.61,1.62-1.08,2.19a14.7,14.7,0,0,0-1.5,2.34,25.39,25.39,0,0,1-4.58,5.83,27.37,27.37,0,0,1-5.49,4.17,76.9,76.9,0,0,1-7,3.76A96.47,96.47,0,0,1,680,278.09c-2.3.56-5.36,0-7.72,0h-7.41a36.75,36.75,0,0,1-13.5-2.08c-2.17-.82-4.36-1.43-6.51-2.32-2-.81-3.6-1.78-5.48-2.77-4.08-2.15-6.54-5.46-9.61-8.78a43.84,43.84,0,0,1-4.81-6.06c-1.12-1.73-2-3.52-2.91-5.34s-1.59-4.22-2.46-6.2c-0.65-1.48-.73-3.16-1.44-4.62-2.47-5-1.74-11.28-2.55-16.75a66.57,66.57,0,0,1-.67-10c0-1.9-.51-3.7-0.59-5.6-0.11-2.79,0-5.61,0-8.4,0-3.79-.6-7.49-0.57-11.26,0-5.25,0-10.5,0-15.74s0-10.37,0-15.55c0-2.16-.5-4.17-0.59-6.31-0.12-2.8,0-5.65,0-8.46,0-5.75.24-11.51-.43-17.22-0.25-2.13,0-4.25-.23-6.38a61,61,0,0,0-1.11-7c-0.36-1.48-1-2.52-1-4.05s0-3.06,0-4.59v-48q0-3.48,0-7c0-2.4.4-4.51,0.6-6.87,0.14-1.72.94-3.32,1.08-5a32.28,32.28,0,0,1,.4-3.39c0.44-2.43.23-5.07,0.79-7.46,1-4.39.43-9.73,0.43-14.31,2.75,0,6-.55,8.79-0.55H627c1.55,0,3.54-.36,5,0a36.56,36.56,0,0,0,5.43,1.14,38.93,38.93,0,0,0,8.84-.59,26.93,26.93,0,0,1,2.72,0c1.16-.07,2.19-0.52,3.36-0.58,4-.22,7.9.43,11.86,0.6,2.24,0.1,4.53,0,6.78,0,1.33,0,2.66,0,4,0,2,0,3.9.58,6,.56,3.64,0,7.28,0,10.92,0,3.39,0,6.55-1.11,10-1.11H720c2.34,0,5.27-.47,7.56,0,0.52,0.1.75,0.36,1.19,0.46,0.9,0.21,1.78,0,2.69.24,0.41,0.1.74,0.38,1.17,0.46,0.72,0.14,1.53-.21,2.25-0.06,2,0.44,3.84,1.15,6,1.13,1.83,0,3.67,0,5.5,0h13.75a31.86,31.86,0,0,0,3.86,0c0.86-.11,1.32-0.46,2.18-0.58a52.48,52.48,0,0,1,6.61,0c0,2.16-.09,4.35,0,6.51,0.09,3,1.05,5.86,1.15,8.82,0.07,2.09,0,4.19,0,6.28V68.62c0,3.55,0,7.11,0,10.66,0,3.06-.59,6-0.57,9,0,3.85,0,7.71,0,11.56,0,1.87.1,3.77,0,5.64-0.12,3.2-.91,6.41-1.19,9.61-0.52,5.94-.48,11.81-0.48,17.78,0,3,0,5.95,0,8.92,0,3.38-.59,6.68-0.57,10.07,0.05,9.8-.05,19.6,0,29.41,0,2.24-.46,4.3-0.58,6.51-0.14,2.66,0,5.37,0,8v13.25c0,3.17-.23,6.43,0,9.59a60.81,60.81,0,0,0,2.06,10.56c0.37,1.47,1,2.87,1.25,4.29a4.09,4.09,0,0,0,1,2.15,37.81,37.81,0,0,1,1.82,4,31.91,31.91,0,0,0,3.7,6.26c1.26,1.46,2,3.3,3.42,4.69,0.74,0.74,2.88,3.09,3.86,3.29" transform="translate(-610 -9.5)" style="fill:none;stroke:#ff9740;stroke-miterlimit:10"/></svg>