<svg id="Layer_1" data-name="Layer 1" xmlns="http://www.w3.org/2000/svg" viewBox="0 0 180.14 254.09"><title>self-logo</title><path d="M475.81,344.51a26.79,26.79,0,0,0,0,4.2c0,2.8.14,5.6,0.14,8.4-5.21,0-10,.87-15.26.84-2.56,0-4.59.71-7.13,0.69-2.38,0-4.76-.14-7.14-0.14h-13a34.16,34.16,0,0,1-14.88-3.4,29.88,29.88,0,0,1-11.65-9.37,66.68,66.68,0,0,1-4.18-5.24c-0.85-1.41-1.16-3-2-4.41-1.66-2.72-2.23-5.55-3.57-8.4a12.7,12.7,0,0,1-1.12-5c-0.21-1.79-1.08-3.36-1.44-5.07-0.45-2.12,0-4.29-.35-6.45-0.52-3-.45-5.94-0.73-9-0.45-5-1.27-9.88-1.59-14.8-0.16-2.48-.74-4.89-0.87-7.37-0.2-3.89.09-7.86,0.08-11.76,0-5.73-.79-11.25-0.76-17,0-4.86.14-9.72,0.14-14.58V211c3.07,0,5.59-1.29,8.66-1.29,1.24,0,2.5-.06,3.74,0s2.4,0.46,3.72.46c3.92,0,7.88,0,11.88,0V246.8a44.72,44.72,0,0,0-.14,5c0.08,0.68.24,1.23,0.32,1.89a3.3,3.3,0,0,1,0,.63c0.72,0,1.44,0,2.16,0a68,68,0,0,0,8.21-.91c3.26-.36,6.75.09,10,0.09H448c0,5,.5,9.51.5,14.41v5.67c0,1-.13,1.9-0.14,2.85a5.72,5.72,0,0,0,0,1.31c0.08,0.41.47,0.38,0.29,1.06-4.54,0-9.13.06-13.67,0-2,0-3.63,1.09-5.63,1-1.15-.08-2.17-0.38-3.35-0.37-1.52,0-3,.11-4.55.11h-1.91c0,1.29-.06,2.58-0.06,3.87v10.17a14.9,14.9,0,0,0,.45,3.56A13.28,13.28,0,0,1,420,300a16.21,16.21,0,0,0,.42,3.22,29.37,29.37,0,0,0,.59,3c0.29,1.05.87,2,1.23,3,0.78,2.07,1,4.56,2.26,6.41,0.37,0.55.9,1,1.28,1.59a10.35,10.35,0,0,0,.65,1.11,3.36,3.36,0,0,0,1,.76,16.52,16.52,0,0,0,3.89,2.06c0.93,0.35,1.9.66,2.85,1a19.64,19.64,0,0,1,2.17.87,14.6,14.6,0,0,0,6.22.89c1.47,0,3-.08,4.42,0a17.67,17.67,0,0,1,2.32.48,16.43,16.43,0,0,0,2.53.11c2.8,0,5.6.13,8.39,0.13h8.24c1.23,0,2.5,0,3.72-.12a9,9,0,0,0,1.55-.48,22.27,22.27,0,0,1,3-.22c0,5.88-.08,10.76,0,16.64C476.72,342,476.1,342.91,475.81,344.51Z" transform="translate(-355.96 -105.06)" style="fill:none;stroke:#ff9740;stroke-miterlimit:10"/><path d="M535.41,179.44c-0.52-2.26-.28-4.43-0.38-6.82a7.91,7.91,0,0,0-.54-2,15.53,15.53,0,0,1,0-3,8.34,8.34,0,0,0-.47-2.11c-0.14-.86.1-1.77,0-2.62-0.06-.45-0.45-1.28-0.55-1.69-0.16-.68-0.21-1.44-0.37-2.12-0.3-1.38-.61-2.77-0.91-4.13A54,54,0,0,0,528,143.52a55.82,55.82,0,0,1-2.17-5.46c-0.7-2-1.82-3.22-2.74-5a51.45,51.45,0,0,0-4.73-7c-1.58-2.06-2.76-4.66-4.4-6.77a13.71,13.71,0,0,0-4-3,97.72,97.72,0,0,0-9.41-5.34,34.06,34.06,0,0,0-9.76-2.83c-1.21-.19-2.26-1-3.49-1.16s-2-.22-3.1-0.43a32.63,32.63,0,0,0-6.31-.72c-4.28,0-9.27-.79-13.37.46-2,.61-4.19-0.08-6.22.43-2.75.69-5.69,0.18-8.5,0.27-1.65.05-3.2,0.62-4.86,0.63a9.73,9.73,0,0,0-3.17.41c-2.74.85-5.35,1.77-8.13,2.37a78.89,78.89,0,0,1-9.8,1.92c-2.2.18-4.25,1.89-6.17,3.08s-3.89,2.44-5.82,3.72c-0.72.47-1.44,0.74-2.12,1.18-1,.63-1.88,1.66-2.86,2.35-2,1.39-4.22,2.39-6.19,3.93a24.79,24.79,0,0,0-4.39,5.19c-1.29,1.91-2,4.41-2.92,6.55a42.07,42.07,0,0,0-1.54,4.77c-0.37,1.19-1.08,2.32-1.34,3.55-0.2,1-.15,1.92-0.37,2.78-0.29,1.2-.55,2.59-0.8,3.88a49.33,49.33,0,0,0-1.08,7.71q-0.07,3.77-.09,7.55l-0.14,0h-3.79c-0.66,0-1.33.22-2,.21a2.61,2.61,0,0,0-1.62.57,3.53,3.53,0,0,1-1.84.32c-0.84,0-1.55.57-2.37,0.65-1.3.12-2.68,0.25-4,.25h-4.18c-1.26,0-2.79-.48-4-0.16a14.77,14.77,0,0,1-4,.16,4.36,4.36,0,0,0-1.43.33,12.32,12.32,0,0,1-2.31-.27c0,2.68.1,5.54,0.1,8.22,0,1,0,1.92,0,2.88s0.37,2,.36,3.08c0,0.9-.07,1.84,0,2.75s0.38,1.69.37,2.69a9.5,9.5,0,0,0,.29,2.58,12.16,12.16,0,0,1,.08,2.74h30.23a10.2,10.2,0,0,0,2.76,0h29a56.5,56.5,0,0,0,8.23-.21,62.43,62.43,0,0,0,6.34-1.28,22.25,22.25,0,0,1,5.84-.45c2,0,3.9-.49,5.92-0.63a31.51,31.51,0,0,0,3.5-.13,64.73,64.73,0,0,1,12.36-1.11c2.78,0,5.73-.5,8.39.32,3.13,1,6.28.49,9.51,0.49H494c4.21,0,9.23,1,13.26-.16,2.61-.79,6.09.16,8.78,0.16h5.63c1.49,0,3.1,0,4.6,0,1,0,1.78-.57,2.74-0.66,2-.21,4.51-0.8,6.51-0.8v-6.26A25.31,25.31,0,0,0,535.41,179.44Zm-41.9-13.94c-1.31,0-2.63,0-3.94-.07a13.27,13.27,0,0,0-3.42.75,16.11,16.11,0,0,1-3.94.24,8.91,8.91,0,0,0-1.86,0,13,13,0,0,1-1.8.56,35.4,35.4,0,0,0-3.58.1,5.73,5.73,0,0,1-1.69.41h-2.1c-2.71,0-5.43-.07-8.14,0-3,.07-5.68,1-8.68,1.06-1.64,0-3,.71-4.61.78-1.91.09-3.87,0.21-5.78,0.21H425.72c-1.1,0-3.54.24-4.5-.2s0-2.9,0-4c0-2.1,0-4.2,0-6.3a14,14,0,0,1,.52-3.17,16.88,16.88,0,0,0,.51-3.14,11.71,11.71,0,0,1,1.08-3.16,9.84,9.84,0,0,1,.37-1.16c0.22-.46.58-0.89,0.81-1.34,0.84-1.63,2.61-2.68,3.67-4.3a13.22,13.22,0,0,1,4.2-4.63c1.65-1,3.44-1.85,5.1-2.88a15.2,15.2,0,0,1,3.18-1.86c0.88-.26,1.8.12,2.65-0.08s1.72-.68,2.6-0.95c1.14-.35,2-1.07,3.14-1.2s1.63-.33,2.59-0.52a23.32,23.32,0,0,1,4.26,0,23,23,0,0,0,4.23,0c0.56-.12,1-0.47,1.54-0.58a15.81,15.81,0,0,1,2.75,0c2.14,0,5.18.53,7.27,0,0.48-.11.52-0.46,1-0.58a8.59,8.59,0,0,1,1.6,0c1.23,0,2.45,0,3.68,0a14.66,14.66,0,0,1,3,.12,9.65,9.65,0,0,0,1.15.42c0.52,0.07,1.08-.1,1.6,0,2,0.26,3.3,1.29,5,2.26,0.94,0.54,1.5,1.27,2.32,1.84a18.25,18.25,0,0,1,2.26,1.57,14.63,14.63,0,0,1,3.43,4.33,20.17,20.17,0,0,1,1.17,2.63c0.28,0.84.73,1.92,0.93,2.74,0.51,2,1.56,4,1.71,6.19,0,0.52-.09,1.08,0,1.59a12,12,0,0,0,.57,1.54c0.11,0.46,0,1,.09,1.48a6.34,6.34,0,0,1,.4,1.77c0,2.45,0,4.43,0,7.43h-8.15Z" transform="translate(-355.96 -105.06)" style="fill:none;stroke:#ff9740;stroke-miterlimit:10"/><path d="M491.44,251.26c-0.66-.2-1.39.5-1.94,0.79-0.94.51-1.94,0.8-2.88,1.29-1.41.73-2.08,2-2.91,3.31a18,18,0,0,0-1.7,3.92,13.37,13.37,0,0,0-.86,3.92c0,2.65.39,6.22,2.8,8,1.81,1.31,4.12,1.84,6,2.8a16.12,16.12,0,0,0,7.34,2,9.48,9.48,0,0,0,2.2,0c0.88-.24,1.48-1.3,2.22-1.84,1-.76,2.38-1.26,3.07-2.43a6.29,6.29,0,0,0,.58-1.59,4.05,4.05,0,0,1,1.13-1.58,12.55,12.55,0,0,0,.7-1.79,9.87,9.87,0,0,0,.75-1.88c0.24-.93.77-1.76,1-2.62,0.39-1.4-.4-2.19-0.9-3.37a11.15,11.15,0,0,0-2.08-3.33c-1.85-2-3.09-4.36-5.75-5a23.28,23.28,0,0,0-4.65-1c-0.8,0-1.65,0-2.45,0S491.55,251.44,491.44,251.26Z" transform="translate(-355.96 -105.06)" style="fill:none;stroke:#ff9740;stroke-miterlimit:10"/></svg>
