<svg id="Layer_1" data-name="Layer 1" xmlns="http://www.w3.org/2000/svg" viewBox="0 0 336.09 304.8"><title>web</title><path d="M741.28,311.22a140.54,140.54,0,0,0-1-19.78c-0.82-5.82-1.24-11.77-3.23-17.33-0.92-2.57-2-5.21-3.15-7.69-0.88-1.93-2.2-3.52-3.21-5.37a18.67,18.67,0,0,0-2.06-3.09c-1.21-1.48-1.72-3.26-2.81-4.81a76.08,76.08,0,0,1-4.17-7.19c-1.91-3.49-2.46-7.9-5.29-10.82-3-3.12-6.33-5.78-9.11-9a56.44,56.44,0,0,1-3.84-5.67c-0.88-1.3-1.63-2.68-2.63-3.91-0.5-.62-1.09-1.15-1.62-1.74a28.57,28.57,0,0,1-1.9-3c-2-2.79-5.37-5.11-7.93-7.55-3.12-3-5.15-7.1-8.33-10.1s-7-4.84-10.42-7.18c-1.49-1-2.36-2.07-4.1-2.6-3.09-.94-6.16-1.93-9.25-2.88a11.63,11.63,0,0,0-3.13-.6,12.48,12.48,0,0,1-5.89-2.1A88,88,0,0,0,638,173.17c-2.22-1-4.39-2.09-6.67-2.91-1.68-.61-3.36-0.88-5-1.65-3.92-1.87-7.81-3.6-11.8-5.3-2.24-1-4.26-2-6.72-2.1-2-.1-4.09,0-6.14-0.13a55.69,55.69,0,0,1-8.93-1.84c-2.09-.52-4.8-0.12-6.93-0.12-4.43,0-8.87,0-13.3,0-3.62,0-7.05.79-10.63,1.26a55.4,55.4,0,0,1-7.06.11c-3.53,0-7,.68-10.54.73a35.73,35.73,0,0,0-6.63.76c-0.87.18-1.5,0.54-2.39,0.66a29.42,29.42,0,0,1-3.87,0,14.4,14.4,0,0,0-4.44.86c-2.68.76-9.62,2.89-12.72,3.5-3.61.72-7.28,1.23-10.93,1.92-6.63,1.27-12.66,5.05-18.92,7.4-2.6,1-5.3.6-7.69,1.76-4.49,2.19-8.42,5-13,7-3.69,1.63-7.46,3-10.56,5.69-2.42,2.1-4.43,4.47-7,6.37-3.17,2.37-4.59,6.38-6.48,9.71-1.79,3.13-3.6,6.22-5.4,9.37-2.58,4.53-4,9.31-6.19,14-0.8,1.7-1.82,3.19-2.57,4.92-1.12,2.57-2.77,4.34-4.21,6.71A33.32,33.32,0,0,0,417.26,254c-0.26,1.76-.3,3.37-0.45,5.08-0.22,2.6-1.9,5-2.9,7.42a161.57,161.57,0,0,0-6.64,17.74c-0.49,1.74-.22,3.51-0.47,5.31a33.87,33.87,0,0,0-.55,5.41c0.08,9.35,0,18.56,3,27.59,1.39,4.24,2.88,8.61,4,12.91,0.55,2,1.36,3.93,1.93,5.93,0.74,2.56,1.16,5.19,2.28,7.64,0.7,1.53,1.29,2.23,1.38,3.86,0.14,2.58,1.09,4.83,1.87,7.31,1.49,4.73,3.42,9.23,5.14,13.88a85.56,85.56,0,0,0,6.32,14.21c3.49,5.88,8.81,10.36,13,15.64,3.9,4.87,7.7,9.09,13,12.47,3.3,2.12,6.92,3.82,10.14,6,3.87,2.63,8,4.49,11.47,7.64,4,3.65,8.89,6.22,13.2,9.48,1.31,1,2.61,2.3,4.26,2.71,0.54,0.13.93-.13,1.34,0a14,14,0,0,1,3.75,1.64c7.15,4.08,13.31,9,20.8,12.51,2.62,1.21,4.83,2.52,7.73,3.1a100.69,100.69,0,0,0,10,1.75c4.81,0.46,9.83,0,14.68,0a191.26,191.26,0,0,1,22.58,1.08c7.36,0.86,15.07.32,22.47,0.32,6.33,0,12.66,0,19,0a26.7,26.7,0,0,0,7.62-.66c3-.82,6-1.81,9-2.53s6.26-.68,9.15-1.81c3.44-1.34,6.81-2.83,10.28-4.12,9.41-3.51,17.88-9.08,26.09-14.75,0.68-.47,1.75-0.79,2.36-1.32a13.36,13.36,0,0,0,1.78-3,40.2,40.2,0,0,1,3.09-4.09c1.58-2.08,2.8-4.39,4.71-6.22,1.69-1.64,3.86-2.58,5.65-4.1a25,25,0,0,1,2.39-2.25c2.06-1.31,4.6-2.56,6.21-4.5,1.84-2.21,3-5.08,4.67-7.4a89.52,89.52,0,0,0,6.25-9.07,91.54,91.54,0,0,0,6.33-15.42c0.69-2.11,2.1-4,2.7-6.1a47.58,47.58,0,0,1,1.49-5.68c1.34-3.21,2.21-6.71,3.31-10a18.5,18.5,0,0,1,1.59-3.14,17.77,17.77,0,0,0,1.49-6c1-6.53,4-12.64,4.1-19.31,0.06-3.08,1.39-6,1.45-9C741.38,318.47,741.29,314.84,741.28,311.22ZM633.46,205.73c0.56,0.29,1,.89,1.53,1.18,0.76,0.39,1.78.24,2.51,0.83s0.87,1.56,1.47,2.39a20.75,20.75,0,0,0,2.4,2.39,18,18,0,0,0,6,3.86,17.82,17.82,0,0,1,6,3.54c3.83,3.43,7.77,6.89,11.3,10.61a39.35,39.35,0,0,1,3.62,4.38,46.22,46.22,0,0,1,2.6,4.92c0.83,1.51,2.29,2.61,3.31,4.13a36,36,0,0,0,3.74,5c1,1,2.33,1.83,3.24,2.86a9.73,9.73,0,0,1,.7.92c-1.16.41-2.35,0.74-3.5,1.23a22.48,22.48,0,0,1-3.56,1.56,15.35,15.35,0,0,0-3.8,1.23c-2.38,1.24-4.82,1.77-7.24,2.8a33.07,33.07,0,0,1-5.52,1.72,6.49,6.49,0,0,0-.22-0.62c-0.23-.57-0.71-0.94-0.93-1.46-0.32-.76-0.27-1.7-0.62-2.47-0.26-.56-0.63-1-0.86-1.61-0.47-1.28-.22-2.48-0.79-3.8-1.35-3.1-2.26-6.26-3.73-9.34-0.74-1.56-1-3.43-1.65-4.83a13.86,13.86,0,0,1-1.23-2.17c-0.29-.93-0.36-1.9-0.69-2.83-0.26-.73-0.51-1.49-0.82-2.22-0.4-1-1.12-1.46-1.58-2.35-0.82-1.56-1.4-3.36-2.18-4.9a77.74,77.74,0,0,0-7.32-11.08c-1.48-2-2.31-4.57-3.92-6.43A6.13,6.13,0,0,1,633.46,205.73Zm-1.81,94.17c1,0,2,0,3,0a33.85,33.85,0,0,0,.21,4.17,89.7,89.7,0,0,1,.66,11v7.71a31,31,0,0,1-.12,3.2c-0.1.92-.59,1.74-0.69,2.66a43.89,43.89,0,0,0,0,5.38,37.76,37.76,0,0,1-.45,5c-0.13,1,0,2.24-.26,3.25-0.18.82-.7,1.54-0.91,2.34-0.66,2.43-.78,5-1.53,7.49a44.39,44.39,0,0,1-2.71,6.25c-3.73-.5-7.48-0.89-11.17-1.59a23.58,23.58,0,0,0-4.68-.13,8.18,8.18,0,0,1-2.38-.28c-0.89-.23-1.79-0.11-2.69-0.33-1.23-.29-2.5-0.62-3.76-1a8.47,8.47,0,0,0-2.25-.12,6.53,6.53,0,0,1-2-.47,37.28,37.28,0,0,0-6.07,0H592.5v-0.39c0-1.77-.46-3.31-0.56-5-0.32-5.25-.56-10.52-0.57-15.79,0-2.84-.46-5.56-0.62-8.36-0.18-3.25,0-6.56,0-9.82a86.81,86.81,0,0,0-.78-10.42c1.58-.09,3.17-0.24,4.75-0.45,1.17-.16,2.18-0.76,3.3-1,0.55-.1,1.1,0,1.66-0.08a14.93,14.93,0,0,1,1.91-.53,22.17,22.17,0,0,0,2.7-.11c2.52-.5,5.11-0.62,7.71-0.93a74.86,74.86,0,0,0,8.39-1.76,22.47,22.47,0,0,1,6.79-.57C628.71,299.4,630.1,299.87,631.65,299.9Zm-42-105.48c0.6,0.4,1.27.68,1.86,1.13a31.55,31.55,0,0,1,4.21,4.51,16.56,16.56,0,0,1,2.41,3,7.42,7.42,0,0,0,1.28,2.34c0.47,0.45,1.07.68,1.52,1.17a75.79,75.79,0,0,1,12.13,16.91c0.33,0.66.82,1.32,1.13,2s0.25,1.24.52,2c0.43,1.12,1.49,2.06,2.06,3.12,0.66,1.22,1,2.56,1.64,3.77,1.45,2.75,3.23,5.2,4.38,8.07a15.81,15.81,0,0,1,.21,2.14,36.35,36.35,0,0,1,1.28,3.36,35.19,35.19,0,0,1,1.48,4.12c0.63,1.85,1.11,3.82,1.78,5.74,0.78,2.27.67,5,1.37,7.44,0.15,0.54.33,1,.51,1.55-1.51.15-3,.21-4.54,0.44-2.52.36-5.06,0.69-7.6,0.84-2.11.12-4.15,0.6-6.28,0.57s-4.18,0-6.27,0c-2.34,0-4.68,0-7,0a18,18,0,0,0-3.45.59,29,29,0,0,1-4.75,0v-20c0-4.21.31-8.53,0.06-12.73-0.06-1-.47-1.87-0.6-2.87a30.12,30.12,0,0,1,0-3.68c0-6.42-.08-12.84,0-19.25,0-1.87-.56-3.54-0.63-5.42s0-3.81,0-5.71c0-1.75-.13-3.52-0.24-5.28Zm-67.5,66.48A93.38,93.38,0,0,1,524.54,250a72.52,72.52,0,0,1,3-7.23,16.57,16.57,0,0,1,1.38-3,8.84,8.84,0,0,0,.76-1.12,18.66,18.66,0,0,0,.54-2.44c0.26-.78.92-1.53,1.27-2.3a36.88,36.88,0,0,0,2.09-4.28c0.77-2.61,1.39-5.21,2.4-7.74A80.18,80.18,0,0,1,540.9,212c0.76-1.32,1.24-2.71,1.92-4.06,0.46-.89,1.24-1.52,1.74-2.32a12.09,12.09,0,0,0,.65-1.38c1.07-2.2,2.44-4.19,3.52-6.38,0.85-1.73,1.73-3.68,2.74-5.41h0.86a95.59,95.59,0,0,0,.73,11.57c0.64,4.95,1.72,9.76,1.66,14.76,0,2.14.62,3.82,0.6,5.9,0,2.34,0,4.69,0,7,0,6.5.59,12.72,0.6,19.21,0,4,0,8,0,11.94,0,1.71.13,3.4,0.28,5.08h-0.76c-2.46,0-4.92,0-7.37,0-1.81,0-3.44-.39-5.22-0.55-3.06-.27-5.83-1.18-8.94-1.14-1.63,0-3.26,0-4.89,0a21.69,21.69,0,0,1-5.34-.33c-0.79-.18-1.49-0.45-2.22-0.63C521.64,263.88,521.87,262.41,522.15,260.9Zm-2.88,49.7c0-4.1.35-8.09,0.51-12.13l3.57,0.71a17.75,17.75,0,0,1,4.48,1.25,9.56,9.56,0,0,0,3.85,1.16c1.71,0.07,3.18.27,4.88,0.48,3.72,0.45,7.72,0,11.48,0a69.79,69.79,0,0,1,8.5.39q0,21.6,0,43.21c0,3.08,0,6.16,0,9.25-0.18,0-.41,0-0.71,0a46.43,46.43,0,0,0-8.34.12c-2.45.42-4.7,1-7.09,1.62-2.16.53-4.25,1.23-6.41,1.69-1.3.28-2.61,0.66-3.89,1-0.87.25-1.74,0.54-2.57,0.87-0.67.26-1.37,0.81-2,1.12-1.61-4.86-3.15-9.73-4.29-14.75C518.53,334.82,519.26,322.71,519.27,310.6Zm-54.66-74.45c2.45-3.56,4.21-7.42,7.06-10.77a11.4,11.4,0,0,1,2.19-1.66c0.34-.28.59-0.83,0.93-1.17a27.55,27.55,0,0,1,2.57-2,83.55,83.55,0,0,0,8.48-8c0.8-.86,2.42-1.83,2.56-3,2.81-.73,4.69-1.4,6.16-2.68s2.55-2.26,4.44-2.41a13.58,13.58,0,0,0,4.76-1.07c1.73-.73,3.44-1.5,5.23-2.1,0.25-.08.48-0.15,0.71-0.2a19.73,19.73,0,0,0-1.1,2c-0.58,1.07-1.34,2-2,3-1,1.59-2.3,3.06-3.2,4.69-1.24,2.27-2.71,4.32-3.94,6.65-1.83,3.47-2.41,7.19-3.95,10.73-0.39.91-.58,1.9-0.92,2.78a6.8,6.8,0,0,1-.08,1c-0.08.15-.77,0.56-1,0.82-0.37.52-.36,1.6-0.73,2.22a9.62,9.62,0,0,0-1.13,1.46,8.71,8.71,0,0,0-.07,1.67,34.42,34.42,0,0,1-1.45,3.94c-0.47,1.41-.75,2.9-1.12,4.32,0,0.18-.39.5-0.47,0.8-0.16.62,0.06,1.5-.08,2.17-0.53,2.68-1.53,5.32-2.29,8-0.31,1-.68,2-1,2.91a45,45,0,0,1-9.86-2.36,38.06,38.06,0,0,1-6.29-2.52,50.09,50.09,0,0,0-7.67-3.07c-1.69-.54-3.37-1.79-5-2C458.35,245.12,461.51,240.67,464.61,236.15ZM457.4,359.37a15.62,15.62,0,0,1-1.19-4.71c-0.46-2.87-2.16-5.79-3.07-8.54-0.6-1.84-1.45-3.66-1.94-5.53-0.92-3.58-2-7.15-2.92-10.7-0.25-1-.64-2.08-0.86-3.11-0.47-2.15-1.31-4-1.87-6.13-1.35-5.06-.74-10.59-0.74-15.86,0-4.41-.25-8.83.49-13.13,0.54-3.12.28-6.38,0.77-9.55,0-.24.08-0.47,0.13-0.71,1.14,0.54,2.27,1.13,3.36,1.7,3.91,2,8.25,2.61,12.43,4,4.58,1.57,9.41,2.89,14.07,4.06,2.38,0.59,4.92.93,7.44,1.34v11c0,2.51-.53,5.31-0.18,7.78a31.34,31.34,0,0,1,.49,5c0,1.4,0,2.81,0,4.21,0,4.17.66,8.27,0.62,12.45a22.46,22.46,0,0,0,1.2,7.8A66.72,66.72,0,0,1,488,348c1.54,6.24,1.47,12.58,2.88,18.81a37.2,37.2,0,0,0,1.39,4.83c-1.53.45-3.07,0.9-4.61,1.22A48.13,48.13,0,0,0,482,374a40.11,40.11,0,0,0-5.06,2,19.93,19.93,0,0,1-2.24,1.38c-0.69.23-1.33,0.31-2,.59-1.32.5-2.53,1-3.75,1.5l0,0a65.24,65.24,0,0,1-8.18-13.11C459.68,364,458.47,361.72,457.4,359.37Zm53.09,56.12a41.12,41.12,0,0,1-6.4-4.5c-3.35-3.17-6-7-9.11-10.34a7.49,7.49,0,0,1,1.38-1.28c1.72-1,3.25-2.26,5.06-3.16a18,18,0,0,1,2.52-.95c1.59,3,2.77,6.26,4.17,9.37,0.62,1.37,1.37,1.94,1.54,3.46a7.82,7.82,0,0,0,1.22,3.52,45.67,45.67,0,0,1,2.88,6C512.59,417,511.42,416.08,510.49,415.49Zm49.06-14.57c0,2.33-.59,4.57-0.65,6.88a47,47,0,0,1-.53,7.23,26.68,26.68,0,0,0,0,4c0,1.35-.57,2.61-0.68,3.93-0.09,1.09-.08,2.27-0.06,3.42l-2.6,0a6.91,6.91,0,0,1-.71-0.84c-0.59-.87-1.44-1.52-2.08-2.35a38.39,38.39,0,0,1-3-4.86,24,24,0,0,1-2.21-5.42c-0.67-2.23-1.9-4.21-2.57-6.47a18.8,18.8,0,0,0-1.81-3.68c-1.34-2.49-2.35-5.29-3.48-7.88a28.4,28.4,0,0,0-1.12-3.13c-0.59-1-1.62-1.72-1.93-2.9-0.15-.55.16-1.12,0-1.73a2,2,0,0,0-.19-0.46c1.66-.27,3.32-0.54,5-1a65.36,65.36,0,0,1,7.75-1.08c3.5-.45,7-1.22,10.45-1.85a31.36,31.36,0,0,0,.27,3.48,66.47,66.47,0,0,1,.3,9.78C559.53,397.65,559.57,399.29,559.55,400.92Zm56.1-10.72a40,40,0,0,1-3.77,10.88c-1.17,2.32-2.59,4.53-3.57,6.94a12.1,12.1,0,0,1-1.86,3.47c-3,3.57-5.18,7.68-7.88,11.44-1.08,1.5-2,3-3,4.57H594.5v-3.11c0-8-1.08-15.87-1.31-23.84-0.1-3.58.5-7.75-.35-11.11a30.33,30.33,0,0,1-.47-8.13l1.41,0.34c1.58,0.4,3,.06,4.63.23,1.36,0.15,2.55.53,3.93,0.59a29.89,29.89,0,0,1,5.06.69c1.58,0.36,3.1,1.06,4.69,1.43s3.5,0.54,5.25.78A18.9,18.9,0,0,0,615.65,390.2Zm50.26,17.09a37.45,37.45,0,0,1-8.2,5.67c-2.86,1.49-5.23,3-8.35,3.91-2.37.67-4.38,2.32-6.81,2.9-2.26.54-4.59,1-6.91,1.55a47.62,47.62,0,0,0,2.93-4.87c1.32-2.46,2.37-5,3.57-7.56,0.76-1.58,1.22-3.3,2-4.88s1.77-2.8,2.4-4.44,1.4-3.35,2.16-5c1.41,0.53,2.87,1,4.26,1.38a33.12,33.12,0,0,1,5.07,2.24c1.88,0.9,3.78,1.82,5.66,2.7,2.15,1,4.65,1.14,6.78,2.18C668.92,404.46,667.39,405.86,665.91,407.29Zm35.93-77.8a46.45,46.45,0,0,0-1.18,10.76c0.06,3.31-1.61,6.24-2.39,9.39-0.88,3.57-2.38,6.86-3.14,10.42-0.49,2.31-.9,4.54-1.44,6.78s-1.29,4.7-2,7a36.91,36.91,0,0,1-1.74,4.26,34.9,34.9,0,0,0-4.18-2.83c-0.89-.5-1.84-0.83-2.76-1.24s-1.72-.88-2.61-1.23c-0.48-.18-1-0.2-1.52-0.38-0.66-.25-1.15-0.8-1.75-1.05s-1.5-.15-2.26-0.42c-1.27-.45-2.67-0.79-3.9-1.34a62,62,0,0,0-6.86-2.67,31.61,31.61,0,0,1-3.46-1.43c0.41-1.17,1-2.22,1.33-3.41,0.22-.92-0.05-1.83.11-2.74,0.25-1.43,1-2.81,1.35-4.22a72.83,72.83,0,0,0,1.86-8.22,20.55,20.55,0,0,0,.1-2.83c0-1.75.29-3.39,0.38-5.12s-0.26-3.69-.26-5.51V324c0-3.2-.23-6.76.51-9.87,0.83-3.54.39-7.79,0.39-11.46a46.45,46.45,0,0,0,.09-5,11.56,11.56,0,0,0-.31-1.51c1.61-.52,3.25-1.13,4.87-1.65,2.93-.94,5.94-1.45,8.9-2.25a21.83,21.83,0,0,1,4.79-.76,4.57,4.57,0,0,0,1.6-.24c1.81-.68,3.17-2.12,5.07-2.56a15.14,15.14,0,0,0,3.61-1.52c1.12-.59,2.26-1,3.34-1.53,0.77,2.34,1.51,4.68,2.3,6.94,0.92,2.63,1.53,5.2,2.37,7.93a20.31,20.31,0,0,1,.79,6.43A105.24,105.24,0,0,1,701.84,329.49Z" transform="translate(-405.75 -158.47)" style="fill:none;stroke:#ff9740;stroke-miterlimit:10"/></svg>
